<?xml version="1.0" encoding="UTF-8"?>
<svg id="Layer_2" data-name="Layer 2" xmlns="http://www.w3.org/2000/svg" viewBox="0 0 224.82 55.2">
  <g id="_레이어_4" data-name="레이어 4">
    <g>
      <path d="M24.72,41.58h-8.04L5.88,29.64v11.94H0V13.56H5.88v12.06l10.62-12.06h6.54v5.16h-3.96l-7.62,8.46,13.26,14.4Z"/>
      <path d="M32.4,27.54c0-8.88,6.72-14.7,14.7-14.7s14.76,5.82,14.76,14.7-6.78,14.76-14.76,14.76-14.7-5.88-14.7-14.76Zm23.58,0c0-5.4-4.08-9.18-8.88-9.18s-8.82,3.78-8.82,9.18,4.02,9.24,8.82,9.24,8.88-3.78,8.88-9.24Zm-12.42-18.18L49.32,0h6.84l-7.32,9.36h-5.28Z"/>
      <path d="M105.66,13.56v5.52h-6.3c1.8,2.22,3.12,5.46,3.12,8.82,0,8.88-6.78,14.4-14.76,14.4s-14.7-5.64-14.7-14.52,6.54-14.22,15.24-14.22h17.4Zm-9.06,14.22c0-5.34-4.08-8.94-8.88-8.94s-8.82,3.6-8.82,8.94,4.02,9,8.82,9,8.88-3.54,8.88-9Z"/>
      <path d="M147.6,36.36v5.58h-2.94c-3.66,0-6.24-1.14-7.02-4.62-1.68,3.42-6.06,4.92-9,4.92-2.16,0-4.5-1.02-5.76-2.22v15.18h-5.88V13.56h5.88v15.84c0,4.62,2.76,7.38,6.36,7.38s8.1-2.16,8.1-7.98V13.56h5.88v20.64c0,1.62,.84,2.16,2.16,2.16h2.22Z"/>
      <path d="M158.16,27.54c0-8.88,6.72-14.7,14.7-14.7s14.76,5.82,14.76,14.7-6.78,14.76-14.76,14.76-14.7-5.88-14.7-14.76Zm23.58,0c0-5.4-4.08-9.18-8.88-9.18s-8.82,3.78-8.82,9.18,4.02,9.24,8.82,9.24,8.88-3.78,8.88-9.24Z"/>
      <path d="M214.26,37.02l9.12,1.86-3.6,12.48h-5.82l2.52-8.4-2.58-.48c-8.52-1.56-15.12-6.06-15.12-14.94s7.02-14.7,15.12-14.7c4.56,0,8.46,1.86,10.92,4.8l-3.9,3.66c-1.62-1.8-4.08-2.94-6.9-2.94-5.22,0-9.36,3.84-9.36,9.18s4.08,8.1,9.6,9.48Z"/>
    </g>
  </g>
</svg>